<svg xmlns="http://www.w3.org/2000/svg" xmlns:xlink="http://www.w3.org/1999/xlink" version="1.1" x="0px" y="0px" viewBox="0 0 66 82.5" enable-background="new 0 0 66 66" xml:space="preserve"><g fill="#973803"><path d="M65,33C65,15.4,50.7,1,33,1C15.4,1,1,15.3,1,33c0,17.6,14.3,32,32,32C50.6,65,65,50.7,65,33z M52.8,51.4   c-0.4-0.4-1-0.4-1.4,0c-0.4,0.4-0.4,1,0,1.4l2.1,2.1c-5.1,4.8-12,7.8-19.5,8.1v-3c0-0.6-0.4-1-1-1c-0.6,0-1,0.4-1,1v3   c-7.5-0.2-14.3-3.3-19.5-8.1l2.1-2.1c0.4-0.4,0.4-1,0-1.4c-0.4-0.4-1-0.4-1.4,0l-2.1,2.1C6.3,48.3,3.3,41.5,3,34h3c0.6,0,1-0.4,1-1   s-0.4-1-1-1H3c0.2-7.5,3.3-14.3,8.1-19.5l2.1,2.1c0.4,0.4,1,0.4,1.4,0c0.4-0.4,0.4-1,0-1.4l-2.1-2.1C17.7,6.3,24.5,3.3,32,3v3   c0,0.6,0.4,1,1,1c0.6,0,1-0.4,1-1V3c7.5,0.2,14.3,3.3,19.5,8.1l-2.1,2.1c-0.4,0.4-0.4,1,0,1.4c0.4,0.4,1,0.4,1.4,0l2.1-2.1   c4.8,5.1,7.8,12,8.1,19.5h-3c-0.6,0-1,0.4-1,1s0.4,1,1,1h3c-0.2,7.5-3.3,14.3-8.1,19.5L52.8,51.4z"/><path d="M50.6,32H36.5c-0.3-1.2-1.3-2.2-2.5-2.5V11.1c0-0.6-0.4-1-1-1c-0.6,0-1,0.4-1,1v18.4c-1.5,0.4-2.7,1.8-2.7,3.5   c0,2,1.7,3.7,3.7,3.7c1.7,0,3.1-1.1,3.5-2.7h14.1c0.6,0,1-0.4,1-1S51.1,32,50.6,32z M33,34.7c-0.9,0-1.7-0.8-1.7-1.7   c0-0.9,0.8-1.7,1.7-1.7c0.9,0,1.7,0.8,1.7,1.7C34.7,33.9,33.9,34.7,33,34.7z"/></g></svg>