<svg xmlns="http://www.w3.org/2000/svg" xmlns:xlink="http://www.w3.org/1999/xlink" viewBox="0 0 100 125" version="1.1" x="0px" y="0px"><title>59</title><desc>Created with Sketch.</desc><g stroke="none" stroke-width="1" fill="none" fill-rule="evenodd"><g fill="#973803"><path d="M96.0784314,55.7152642 L93.16,55.7152642 L69.4839216,55.7152642 L69.4839216,47.9452055 L96.0784314,47.9452055 L96.0784314,55.7152642 Z M91.1992157,95.9569472 L40.3398039,95.9569472 L40.3398039,66.3774951 C40.3398039,65.2968689 39.4619608,64.4205479 38.3790196,64.4205479 L19.1633333,64.4205479 C18.0805882,64.4205479 17.202549,65.2968689 17.202549,66.3774951 L17.202549,95.9569472 L8.86313725,95.9569472 L8.86313725,59.6291585 L91.1992157,59.6291585 L91.1992157,95.9569472 Z M21.1241176,95.9567515 L36.4182353,95.9567515 L36.4182353,68.3344423 L21.1241176,68.3344423 L21.1241176,95.9567515 Z M3.92156863,47.9452055 L30.5160784,47.9452055 L30.5160784,55.7152642 L6.90235294,55.7152642 L3.92156863,55.7152642 L3.92156863,47.9452055 Z M13.0364706,26.0317025 L35.8215686,26.0317025 L30.9735294,44.0313112 L4.98372549,44.0313112 L13.0364706,26.0317025 Z M13.6764706,16.2953033 L30.325098,16.2953033 C31.0786275,16.2953033 31.7656863,15.8643836 32.0921569,15.1864971 C33.695098,11.8600783 36.1913725,9.04598826 39.3111765,7.04794521 C42.512549,4.99765166 46.2256863,3.91389432 50.0490196,3.91389432 C53.8721569,3.91389432 57.5852941,4.99765166 60.7868627,7.04794521 C63.9066667,9.04598826 66.4029412,11.8600783 68.0058824,15.1864971 C68.3323529,15.8643836 69.0194118,16.2953033 69.7729412,16.2953033 L86.4215686,16.2953033 L86.4215686,22.1178082 L13.6764706,22.1178082 L13.6764706,16.2953033 Z M69.0264706,44.0313112 L64.1784314,26.0317025 L86.7776471,26.0317025 L94.9915686,44.0313112 L69.0264706,44.0313112 Z M60.1176471,26.0317025 L64.9656863,44.0313112 L35.0343137,44.0313112 L39.8823529,26.0317025 L60.1176471,26.0317025 Z M34.4376471,55.7152642 L65.5623529,55.7152642 L65.5623529,47.9452055 L34.4376471,47.9452055 L34.4376471,55.7152642 Z M99.9970588,45.9289628 C99.9960784,45.9019569 99.994902,45.8747554 99.9929412,45.8475538 C99.9890196,45.7945205 99.9829412,45.7422701 99.974902,45.6906067 C99.9715686,45.6694716 99.9692157,45.6483366 99.9652941,45.6270059 C99.9368627,45.4753425 99.8909804,45.330137 99.8296078,45.1927593 C99.8272549,45.1876712 99.8258824,45.1823875 99.8237255,45.1771037 L90.3209804,24.3536204 C90.3341176,24.2622309 90.3431373,24.169863 90.3431373,24.0747554 L90.3431373,14.3383562 C90.3431373,13.2577299 89.465098,12.381409 88.3823529,12.381409 L70.9694118,12.381409 C69.0527451,8.88414873 66.2845098,5.91819961 62.9045098,3.75381605 C59.07,1.29804305 54.6245098,0 50.0490196,0 C45.4733333,0 41.0280392,1.29804305 37.1935294,3.75381605 C33.8135294,5.91819961 31.0452941,8.88414873 29.1286275,12.381409 L11.7156863,12.381409 C10.6329412,12.381409 9.75490196,13.2577299 9.75490196,14.3383562 L9.75490196,23.767319 L0.170392157,45.190411 C0.168823529,45.1937378 0.167843137,45.197456 0.166470588,45.2007828 C0.135098039,45.27182 0.10745098,45.3446184 0.0849019608,45.4195695 C0.0835294118,45.4234834 0.0829411765,45.4277886 0.0815686275,45.4317025 C0.0617647059,45.4980431 0.0460784314,45.5661448 0.0335294118,45.6350294 C0.0292156863,45.6573386 0.0266666667,45.6798434 0.0231372549,45.7021526 C0.0158823529,45.7528376 0.0101960784,45.8039139 0.00666666667,45.8555773 C0.00470588235,45.8827789 0.00333333333,45.909589 0.00254901961,45.9365949 C0.00215686275,45.953816 0,45.9708415 0,45.9882583 L0,57.6722114 C0,58.7528376 0.878039216,59.6291585 1.96078431,59.6291585 L4.94156863,59.6291585 L4.94156863,97.9138943 C4.94156863,98.9945205 5.81960784,99.8708415 6.90235294,99.8708415 L19.1633333,99.8708415 L38.3790196,99.8708415 L93.16,99.8708415 C94.2429412,99.8708415 95.1207843,98.9945205 95.1207843,97.9138943 L95.1207843,59.6291585 L98.0392157,59.6291585 C99.1219608,59.6291585 100,58.7528376 100,57.6722114 L100,45.9882583 C100,45.9682975 99.997451,45.9489237 99.9970588,45.9289628 L99.9970588,45.9289628 Z M51.9607843,84.7199217 L80.0796078,84.7199217 L80.0796078,68.3345988 L51.9607843,68.3345988 L51.9607843,84.7199217 Z M48.0392157,66.3776517 L48.0392157,86.6766732 C48.0392157,87.7574951 48.9172549,88.6336204 50,88.6336204 L82.0403922,88.6336204 C83.1233333,88.6336204 84.0011765,87.7574951 84.0011765,86.6766732 L84.0011765,66.3776517 C84.0011765,65.2968297 83.1233333,64.4207045 82.0403922,64.4207045 L50,64.4207045 C48.9172549,64.4207045 48.0392157,65.2968297 48.0392157,66.3776517 L48.0392157,66.3776517 Z M31.6086471,79.0839726 C29.9002157,79.0839726 28.5104118,80.4710568 28.5104118,82.1761448 C28.5104118,83.8812329 29.9002157,85.2685127 31.6086471,85.2685127 C33.3170784,85.2685127 34.7068824,83.8812329 34.7068824,82.1761448 C34.7068824,80.4710568 33.3170784,79.0839726 31.6086471,79.0839726"/></g></g></svg>