<svg xmlns="http://www.w3.org/2000/svg" xmlns:xlink="http://www.w3.org/1999/xlink" version="1.1" x="0px" y="0px" viewBox="0 0 100 125" style="enable-background:new 0 0 100 100;" xml:space="preserve"><path class="cart-icon" d="M89.5,24.2c-0.9-1,3.2-0.7-61.9-0.7L26,15.1c-0.2-0.9-1-1.6-2-1.6H12c-2.6,0-2.6,4,0,4h10.4c0,0,9.7,48.4,9.7,48.4  c0.2,0.9,1,1.6,2,1.6h46c2.6,0,2.6-4,0-4H35.7l-1.2-6H83c1,0,1.8-0.7,2-1.7C90.4,23.2,90.4,25.2,89.5,24.2 M41,53.5h-7.4l-2.4-12H41  V53.5z M41,39.5H30.9l-2.4-12H41V39.5z M56,53.5H43v-12h13V53.5z M56,39.5H43v-12h13V39.5z M71,53.5H58v-12h13V53.5z M71,39.5H58  v-12h13V39.5z M81.3,53.5H73v-12h10.3L81.3,53.5z M83.7,39.5H73v-12h12.6L83.7,39.5z M39,72.5c-3.9,0-7,3.1-7,7s3.1,7,7,7s7-3.1,7-7  S42.9,72.5,39,72.5 M39,82.5c-1.7,0-3-1.3-3-3s1.3-3,3-3s3,1.3,3,3S40.7,82.5,39,82.5 M77,72.5c-3.9,0-7,3.1-7,7s3.1,7,7,7  s7-3.1,7-7S80.9,72.5,77,72.5 M77,82.5c-1.7,0-3-1.3-3-3s1.3-3,3-3s3,1.3,3,3S78.7,82.5,77,82.5"/></svg>